<svg width="47" height="45" viewBox="0 0 47 45" fill="none" xmlns="http://www.w3.org/2000/svg">
<path d="M46.6944 17.0411H33.6992V44.1329C34.36 44.265 38.2329 43.4905 40.0867 43.0867C45.5051 41.0162 46.7495 34.9922 46.6944 32.2389V27.6135V17.0411Z" fill="white"/>
<path d="M13.1054 0.852173H25.8803V9.38718H13.9313C10.0548 9.29907 9.01223 12.9113 8.97552 14.7284V17.9222V30.9174C9.15173 32.8116 10.1869 34.3498 10.6825 34.8821C11.6076 35.4547 12.9402 35.7447 13.4908 35.8181H16.5194H28.7988C29.3274 35.8181 30.4507 35.4878 30.9463 35.3226C31.4308 35.3226 32.1393 34.5517 32.433 34.1662V44.0228H11.7287C10.0107 43.9787 7.37865 43.1968 6.27736 42.8113C3.89857 42.1065 2.16587 39.5075 1.59687 38.2961C0.759891 37.3269 0.183548 33.2668 0 31.3579V14.7284L0.330387 11.4796C0.374439 7.55903 2.73487 4.70669 3.90958 3.77059C5.49544 1.92042 10.7009 1.05408 13.1054 0.852173Z" fill="white"/>
<rect x="33.6992" y="0.852173" width="12.9952" height="11.4534" rx="3.08361" fill="white"/>
</svg>
