<svg width="30" height="29" viewBox="0 0 30 29" fill="none" xmlns="http://www.w3.org/2000/svg">
<path d="M29.8869 11.0836H21.7539V28.0389C22.1674 28.1216 24.5913 27.6368 25.7515 27.3841C29.1425 26.0883 29.9214 22.3182 29.8869 20.5951V17.7003V11.0836Z" fill="#28ACE2"/>
<path d="M8.866 0.951782H16.8612V6.29338H9.38293C6.95681 6.23824 6.30433 8.49894 6.28136 9.63619V11.635V19.768C6.39163 20.9535 7.03952 21.9161 7.34968 22.2493C7.92864 22.6077 8.76261 22.7892 9.10723 22.8351H11.0026H18.6876C19.0185 22.8351 19.7215 22.6283 20.0317 22.5249C20.3349 22.5249 20.7783 22.0425 20.9621 21.8012V27.9699H8.00445C6.92924 27.9424 5.28196 27.453 4.59272 27.2118C3.10397 26.7707 2.01956 25.1441 1.66346 24.3859C1.13964 23.7794 0.778936 21.2384 0.664062 20.0437V9.63619L0.870834 7.60293C0.898404 5.14924 2.37567 3.36412 3.11086 2.77826C4.10336 1.62034 7.36116 1.07814 8.866 0.951782Z" fill="#01589A"/>
<rect x="21.7539" y="0.951782" width="8.13301" height="7.16808" rx="1.92987" fill="#28ACE2"/>
</svg>
