<svg width="498" height="253" viewBox="0 0 498 253" fill="none" xmlns="http://www.w3.org/2000/svg">
<path d="M-21 48.6514C16.037 63.3957 43.8148 63.2096 62.3333 48.0931C80.8519 32.9766 99.3704 35.6256 117.889 56.04C136.407 76.4544 154.926 92.4325 173.444 103.974C191.963 115.516 210.481 101.63 229 62.3172C247.519 23.0039 266.037 8.17089 284.556 17.8182C303.074 27.4654 321.593 49.0304 340.111 82.5132C358.63 115.996 377.148 113.933 395.667 76.3248C414.185 38.7164 432.704 21.528 451.222 24.7597C469.741 27.9913 479 19.7381 479 0" stroke="#CCDEEB"/>
<path d="M-3 193.248C34.037 207.992 61.8148 207.806 80.3333 192.69C98.8519 177.573 117.37 180.222 135.889 200.637C154.407 221.051 172.926 237.029 191.444 248.571C209.963 260.113 228.481 246.227 247 206.914C265.519 167.601 284.037 152.768 302.556 162.415C321.074 172.062 339.593 193.627 358.111 227.11C376.63 260.593 395.148 258.53 413.667 220.922C432.185 183.313 450.704 166.125 469.222 169.356C487.741 172.588 497 164.335 497 144.597" stroke="#CCDEEB"/>
<path d="M-20.1426 55.537C16.8945 70.2812 44.6722 70.0951 63.1908 54.9786C81.7093 39.8622 100.228 42.5111 118.746 62.9255C137.265 83.3399 155.783 99.3181 174.302 110.86C192.82 122.402 211.339 108.516 229.857 69.2028C248.376 29.8895 266.894 15.0564 285.413 24.7037C303.931 34.351 322.45 55.916 340.969 89.3987C359.487 122.882 378.006 120.819 396.524 83.2103C415.043 45.6019 433.561 28.4136 452.08 31.6452C470.598 34.8769 479.857 26.6237 479.857 6.88556" stroke="#99BCD7"/>
<path d="M-19.2854 62.4225C17.7516 77.1668 45.5294 76.9807 64.0479 61.8642C82.5665 46.7477 101.085 49.3967 119.603 69.8111C138.122 90.2255 156.641 106.204 175.159 117.745C193.678 129.287 212.196 115.402 230.715 76.0883C249.233 36.775 267.752 21.942 286.27 31.5893C304.789 41.2365 323.307 62.8015 341.826 96.2843C360.344 129.767 378.863 127.704 397.381 90.0959C415.9 52.4875 434.418 35.2991 452.937 38.5308C471.455 41.7624 480.715 33.5092 480.715 13.7711" stroke="#99BCD7"/>
<path d="M-18.4282 69.3081C18.6088 84.0524 46.3866 83.8662 64.9051 68.7498C83.4236 53.6333 101.942 56.2822 120.461 76.6966C138.979 97.111 157.498 113.089 176.016 124.631C194.535 136.173 213.053 122.287 231.572 82.9739C250.09 43.6606 268.609 28.8276 287.127 38.4748C305.646 48.1221 324.164 69.6871 342.683 103.17C361.201 136.653 379.72 134.59 398.238 96.9814C416.757 59.3731 435.275 42.1847 453.794 45.4163C472.313 48.648 481.572 40.3948 481.572 20.6567" stroke="#99BCD7"/>
<path d="M-17.571 76.1937C19.466 90.9379 47.2438 90.7518 65.7623 75.6353C84.2808 60.5188 102.799 63.1678 121.318 83.5822C139.836 103.997 158.355 119.975 176.873 131.517C195.392 143.058 213.91 129.173 232.429 89.8594C250.947 50.5461 269.466 35.7131 287.984 45.3604C306.503 55.0076 325.022 76.5727 343.54 110.055C362.059 143.538 380.577 141.475 399.096 103.867C417.614 66.2586 436.133 49.0703 454.651 52.3019C473.17 55.5336 482.429 47.2803 482.429 27.5422" stroke="#99BCD7"/>
<path d="M-16.7141 83.0792C20.3229 97.8235 48.1007 97.6374 66.6192 82.5209C85.1377 67.4044 103.656 70.0534 122.175 90.4678C140.693 110.882 159.212 126.86 177.73 138.402C196.249 149.944 214.767 136.058 233.286 96.745C251.804 57.4317 270.323 42.5987 288.841 52.2459C307.36 61.8932 325.878 83.4582 344.397 116.941C362.916 150.424 381.434 148.361 399.953 110.753C418.471 73.1442 436.99 55.9558 455.508 59.1875C474.027 62.4191 483.286 54.1659 483.286 34.4278" stroke="#99BCD7"/>
<path d="M-15.8569 89.9648C21.1801 104.709 48.9579 104.523 67.4764 89.4064C85.9949 74.29 104.513 76.9389 123.032 97.3533C141.55 117.768 160.069 133.746 178.588 145.288C197.106 156.83 215.625 142.944 234.143 103.631C252.662 64.3173 271.18 49.4842 289.699 59.1315C308.217 68.7788 326.736 90.3438 345.254 123.827C363.773 157.309 382.291 155.246 400.81 117.638C419.328 80.0297 437.847 62.8414 456.365 66.073C474.884 69.3047 484.143 61.0515 484.143 41.3134" stroke="#99BCD7"/>
<path d="M-14.9998 96.8503C22.0373 111.595 49.8151 111.408 68.3336 96.292C86.8521 81.1755 105.371 83.8245 123.889 104.239C142.408 124.653 160.926 140.631 179.445 152.173C197.963 163.715 216.482 149.829 235 110.516C253.519 71.2028 272.037 56.3698 290.556 66.0171C309.074 75.6643 327.593 97.2293 346.111 130.712C364.63 164.195 383.148 162.132 401.667 124.524C420.185 86.9153 438.704 69.7269 457.222 72.9586C475.741 76.1902 485 67.937 485 48.1989" stroke="#99BCD7"/>
<path d="M-14.1426 103.736C22.8945 118.48 50.6722 118.294 69.1908 103.178C87.7093 88.0611 106.228 90.71 124.746 111.124C143.265 131.539 161.783 147.517 180.302 159.059C198.82 170.601 217.339 156.715 235.857 117.402C254.376 78.0884 272.894 63.2554 291.413 72.9026C309.931 82.5499 328.45 104.115 346.969 137.598C365.487 171.08 384.006 169.018 402.524 131.409C421.043 93.8008 439.561 76.6125 458.08 79.8441C476.598 83.0758 485.857 74.8226 485.857 55.0845" stroke="#99BCD7"/>
<path d="M-13.2854 110.621C23.7516 125.366 51.5294 125.18 70.0479 110.063C88.5665 94.9466 107.085 97.5956 125.603 118.01C144.122 138.424 162.641 154.403 181.159 165.944C199.678 177.486 218.196 163.601 236.715 124.287C255.233 84.9739 273.752 70.1409 292.27 79.7882C310.789 89.4354 329.307 111 347.826 144.483C366.344 177.966 384.863 175.903 403.381 138.295C421.9 100.686 440.418 83.498 458.937 86.7297C477.455 89.9614 486.715 81.7081 486.715 61.97" stroke="#99BCD7"/>
<path d="M-12.4282 117.507C24.6088 132.251 52.3866 132.065 70.9051 116.949C89.4236 101.832 107.942 104.481 126.461 124.896C144.979 145.31 163.498 161.288 182.016 172.83C200.535 184.372 219.053 170.486 237.572 131.173C256.09 91.8595 274.609 77.0265 293.127 86.6737C311.646 96.321 330.164 117.886 348.683 151.369C367.201 184.852 385.72 182.789 404.238 145.18C422.757 107.572 441.275 90.3836 459.794 93.6153C478.313 96.8469 487.572 88.5937 487.572 68.8556" stroke="#99BCD7"/>
<path d="M-11.571 124.393C25.466 139.137 53.2438 138.951 71.7623 123.834C90.2808 108.718 108.799 111.367 127.318 131.781C145.836 152.196 164.355 168.174 182.873 179.715C201.392 191.257 219.91 177.372 238.429 138.058C256.947 98.7451 275.466 83.912 293.984 93.5593C312.503 103.207 331.022 124.772 349.54 158.254C368.059 191.737 386.577 189.674 405.096 152.066C423.614 114.458 442.133 97.2692 460.651 100.501C479.17 103.732 488.429 95.4792 488.429 75.7411" stroke="#99BCD7"/>
<path d="M-10.7141 131.278C26.3229 146.022 54.1007 145.836 72.6192 130.72C91.1377 115.603 109.656 118.252 128.175 138.667C146.693 159.081 165.212 175.059 183.73 186.601C202.249 198.143 220.767 184.257 239.286 144.944C257.804 105.631 276.323 90.7976 294.841 100.445C313.36 110.092 331.878 131.657 350.397 165.14C368.916 198.623 387.434 196.56 405.953 158.951C424.471 121.343 442.99 104.155 461.508 107.386C480.027 110.618 489.286 102.365 489.286 82.6267" stroke="#99BCD7"/>
<path d="M-9.85693 138.164C27.1801 152.908 54.9579 152.722 73.4764 137.605C91.9949 122.489 110.513 125.138 129.032 145.552C147.55 165.967 166.069 181.945 184.588 193.487C203.106 205.028 221.625 191.143 240.143 151.829C258.662 112.516 277.18 97.6832 295.699 107.33C314.217 116.978 332.736 138.543 351.254 172.025C369.773 205.508 388.291 203.445 406.81 165.837C425.328 128.229 443.847 111.04 462.365 114.272C480.884 117.504 490.143 109.25 490.143 89.5123" stroke="#99BCD7"/>
<path d="M-8.99976 145.049C28.0373 159.794 55.8151 159.607 74.3336 144.491C92.8521 129.374 111.371 132.023 129.889 152.438C148.408 172.852 166.926 188.83 185.445 200.372C203.963 211.914 222.482 198.028 241 158.715C259.519 119.402 278.037 104.569 296.556 114.216C315.074 123.863 333.593 145.428 352.111 178.911C370.63 212.394 389.148 210.331 407.667 172.723C426.185 135.114 444.704 117.926 463.222 121.157C481.741 124.389 491 116.136 491 96.3978" stroke="#99BCD7"/>
<path d="M-8.14258 151.935C28.8945 166.679 56.6722 166.493 75.1908 151.376C93.7093 136.26 112.228 138.909 130.746 159.323C149.265 179.738 167.783 195.716 186.302 207.258C204.82 218.8 223.339 204.914 241.857 165.601C260.376 126.287 278.894 111.454 297.413 121.102C315.931 130.749 334.45 152.314 352.969 185.797C371.487 219.279 390.006 217.217 408.524 179.608C427.043 142 445.561 124.811 464.08 128.043C482.598 131.275 491.857 123.021 491.857 103.283" stroke="#99BCD7"/>
<path d="M-7.2854 158.82C29.7516 173.565 57.5294 173.379 76.0479 158.262C94.5665 143.146 113.085 145.795 131.603 166.209C150.122 186.623 168.641 202.601 187.159 214.143C205.678 225.685 224.196 211.799 242.715 172.486C261.233 133.173 279.752 118.34 298.27 127.987C316.789 137.634 335.307 159.199 353.826 192.682C372.344 226.165 390.863 224.102 409.381 186.494C427.9 148.885 446.418 131.697 464.937 134.929C483.455 138.16 492.715 129.907 492.715 110.169" stroke="#99BCD7"/>
<path d="M-6.42822 165.706C30.6088 180.45 58.3866 180.264 76.9051 165.148C95.4236 150.031 113.942 152.68 132.461 173.095C150.979 193.509 169.498 209.487 188.016 221.029C206.535 232.571 225.053 218.685 243.572 179.372C262.09 140.058 280.609 125.225 299.127 134.873C317.646 144.52 336.164 166.085 354.683 199.568C373.201 233.051 391.72 230.988 410.238 193.379C428.757 155.771 447.275 138.583 465.794 141.814C484.313 145.046 493.572 136.793 493.572 117.055" stroke="#99BCD7"/>
<path d="M-5.57104 172.592C31.466 187.336 59.2438 187.15 77.7623 172.033C96.2808 156.917 114.799 159.566 133.318 179.98C151.836 200.394 170.355 216.373 188.873 227.914C207.392 239.456 225.91 225.571 244.429 186.257C262.947 146.944 281.466 132.111 299.984 141.758C318.503 151.406 337.022 172.971 355.54 206.453C374.059 239.936 392.577 237.873 411.096 200.265C429.614 162.657 448.133 145.468 466.651 148.7C485.17 151.931 494.429 143.678 494.429 123.94" stroke="#99BCD7"/>
<path d="M-4.71411 179.477C32.3229 194.221 60.1007 194.035 78.6192 178.919C97.1377 163.802 115.656 166.451 134.175 186.866C152.693 207.28 171.212 223.258 189.73 234.8C208.249 246.342 226.767 232.456 245.286 193.143C263.804 153.83 282.323 138.997 300.841 148.644C319.36 158.291 337.878 179.856 356.397 213.339C374.916 246.822 393.434 244.759 411.953 207.15C430.471 169.542 448.99 152.354 467.508 155.585C486.027 158.817 495.286 150.564 495.286 130.826" stroke="#99BCD7"/>
<path d="M-3.85693 186.363C33.1801 201.107 60.9579 200.921 79.4764 185.804C97.9949 170.688 116.513 173.337 135.032 193.751C153.55 214.166 172.069 230.144 190.588 241.686C209.106 253.227 227.625 239.342 246.143 200.028C264.662 160.715 283.18 145.882 301.699 155.529C320.217 165.177 338.736 186.742 357.254 220.224C375.773 253.707 394.291 251.644 412.81 214.036C431.328 176.428 449.847 159.239 468.365 162.471C486.884 165.703 496.143 157.449 496.143 137.711" stroke="#99BCD7"/>
</svg>
